<mxfile host="65bd71144e" pages="3">
    <diagram id="C5RBs43oDa-KdzZeNtuy" name="Page-1">
        <mxGraphModel dx="1242" dy="547" grid="1" gridSize="10" guides="1" tooltips="1" connect="1" arrows="1" fold="1" page="1" pageScale="1" pageWidth="827" pageHeight="1169" math="0" shadow="0">
            <root>
                <mxCell id="WIyWlLk6GJQsqaUBKTNV-0"/>
                <mxCell id="WIyWlLk6GJQsqaUBKTNV-1" parent="WIyWlLk6GJQsqaUBKTNV-0"/>
                <mxCell id="hNppUeTBCcueo2QdrcWc-7" value="Get request page" style="rounded=0;whiteSpace=wrap;html=1;" parent="WIyWlLk6GJQsqaUBKTNV-1" vertex="1">
                    <mxGeometry x="250" y="40" width="180" height="40" as="geometry"/>
                </mxCell>
                <mxCell id="hNppUeTBCcueo2QdrcWc-8" value="Show request page" style="rounded=0;whiteSpace=wrap;html=1;" parent="WIyWlLk6GJQsqaUBKTNV-1" vertex="1">
                    <mxGeometry x="250" y="80" width="180" height="40" as="geometry"/>
                </mxCell>
                <mxCell id="hNppUeTBCcueo2QdrcWc-9" value="Request type" style="rounded=0;whiteSpace=wrap;html=1;" parent="WIyWlLk6GJQsqaUBKTNV-1" vertex="1">
                    <mxGeometry x="160" y="160" width="360" height="80" as="geometry"/>
                </mxCell>
                <mxCell id="hNppUeTBCcueo2QdrcWc-10" value="" style="endArrow=none;html=1;rounded=0;" parent="WIyWlLk6GJQsqaUBKTNV-1" source="hNppUeTBCcueo2QdrcWc-9" edge="1">
                    <mxGeometry width="50" height="50" relative="1" as="geometry">
                        <mxPoint x="470" y="210" as="sourcePoint"/>
                        <mxPoint x="520" y="160" as="targetPoint"/>
                    </mxGeometry>
                </mxCell>
                <mxCell id="hNppUeTBCcueo2QdrcWc-11" value="" style="endArrow=none;html=1;rounded=0;" parent="WIyWlLk6GJQsqaUBKTNV-1" source="hNppUeTBCcueo2QdrcWc-9" edge="1">
                    <mxGeometry width="50" height="50" relative="1" as="geometry">
                        <mxPoint x="470" y="210" as="sourcePoint"/>
                        <mxPoint x="520" y="160" as="targetPoint"/>
                        <Array as="points">
                            <mxPoint x="360" y="240"/>
                        </Array>
                    </mxGeometry>
                </mxCell>
                <mxCell id="hNppUeTBCcueo2QdrcWc-13" value="" style="endArrow=none;html=1;rounded=0;" parent="WIyWlLk6GJQsqaUBKTNV-1" source="hNppUeTBCcueo2QdrcWc-9" edge="1">
                    <mxGeometry width="50" height="50" relative="1" as="geometry">
                        <mxPoint x="200" y="220" as="sourcePoint"/>
                        <mxPoint x="160" y="160" as="targetPoint"/>
                    </mxGeometry>
                </mxCell>
                <mxCell id="hNppUeTBCcueo2QdrcWc-14" value="" style="endArrow=none;html=1;rounded=0;" parent="WIyWlLk6GJQsqaUBKTNV-1" source="hNppUeTBCcueo2QdrcWc-9" edge="1">
                    <mxGeometry width="50" height="50" relative="1" as="geometry">
                        <mxPoint x="200" y="220" as="sourcePoint"/>
                        <mxPoint x="160" y="160" as="targetPoint"/>
                    </mxGeometry>
                </mxCell>
                <mxCell id="hNppUeTBCcueo2QdrcWc-15" value="" style="endArrow=none;html=1;rounded=0;entryX=0;entryY=0;entryDx=0;entryDy=0;exitX=0.5;exitY=1;exitDx=0;exitDy=0;" parent="WIyWlLk6GJQsqaUBKTNV-1" source="hNppUeTBCcueo2QdrcWc-9" target="hNppUeTBCcueo2QdrcWc-9" edge="1">
                    <mxGeometry width="50" height="50" relative="1" as="geometry">
                        <mxPoint x="390" y="310" as="sourcePoint"/>
                        <mxPoint x="440" y="260" as="targetPoint"/>
                    </mxGeometry>
                </mxCell>
                <mxCell id="hNppUeTBCcueo2QdrcWc-16" value="Get" style="text;html=1;strokeColor=none;fillColor=none;align=center;verticalAlign=middle;whiteSpace=wrap;rounded=0;" parent="WIyWlLk6GJQsqaUBKTNV-1" vertex="1">
                    <mxGeometry x="170" y="200" width="60" height="30" as="geometry"/>
                </mxCell>
                <mxCell id="hNppUeTBCcueo2QdrcWc-17" value="Post" style="text;html=1;strokeColor=none;fillColor=none;align=center;verticalAlign=middle;whiteSpace=wrap;rounded=0;" parent="WIyWlLk6GJQsqaUBKTNV-1" vertex="1">
                    <mxGeometry x="450" y="200" width="60" height="30" as="geometry"/>
                </mxCell>
                <mxCell id="hNppUeTBCcueo2QdrcWc-18" value="" style="rounded=0;whiteSpace=wrap;html=1;" parent="WIyWlLk6GJQsqaUBKTNV-1" vertex="1">
                    <mxGeometry x="160" y="240" width="360" height="70" as="geometry"/>
                </mxCell>
                <mxCell id="hNppUeTBCcueo2QdrcWc-20" value="" style="endArrow=none;html=1;rounded=0;exitX=0.5;exitY=0;exitDx=0;exitDy=0;entryX=0.5;entryY=1;entryDx=0;entryDy=0;" parent="WIyWlLk6GJQsqaUBKTNV-1" source="hNppUeTBCcueo2QdrcWc-18" target="hNppUeTBCcueo2QdrcWc-18" edge="1">
                    <mxGeometry width="50" height="50" relative="1" as="geometry">
                        <mxPoint x="390" y="310" as="sourcePoint"/>
                        <mxPoint x="440" y="260" as="targetPoint"/>
                    </mxGeometry>
                </mxCell>
                <mxCell id="hNppUeTBCcueo2QdrcWc-21" value="page = get page from URL" style="text;html=1;strokeColor=none;fillColor=none;align=center;verticalAlign=middle;whiteSpace=wrap;rounded=0;" parent="WIyWlLk6GJQsqaUBKTNV-1" vertex="1">
                    <mxGeometry x="200" y="260" width="60" height="30" as="geometry"/>
                </mxCell>
                <mxCell id="hNppUeTBCcueo2QdrcWc-22" value="page = get page from Post" style="text;html=1;strokeColor=none;fillColor=none;align=center;verticalAlign=middle;whiteSpace=wrap;rounded=0;" parent="WIyWlLk6GJQsqaUBKTNV-1" vertex="1">
                    <mxGeometry x="390" y="250" width="60" height="40" as="geometry"/>
                </mxCell>
                <mxCell id="hNppUeTBCcueo2QdrcWc-23" value="" style="rounded=0;whiteSpace=wrap;html=1;" parent="WIyWlLk6GJQsqaUBKTNV-1" vertex="1">
                    <mxGeometry x="160" y="310" width="360" height="50" as="geometry"/>
                </mxCell>
                <mxCell id="hNppUeTBCcueo2QdrcWc-24" value="Return Page" style="text;html=1;strokeColor=none;fillColor=none;align=center;verticalAlign=middle;whiteSpace=wrap;rounded=0;" parent="WIyWlLk6GJQsqaUBKTNV-1" vertex="1">
                    <mxGeometry x="310" y="320" width="60" height="30" as="geometry"/>
                </mxCell>
                <mxCell id="hNppUeTBCcueo2QdrcWc-25" value="PSD: get requested page" style="text;html=1;strokeColor=none;fillColor=none;align=center;verticalAlign=middle;whiteSpace=wrap;rounded=0;" parent="WIyWlLk6GJQsqaUBKTNV-1" vertex="1">
                    <mxGeometry x="290" y="130" width="100" height="30" as="geometry"/>
                </mxCell>
                <mxCell id="hNppUeTBCcueo2QdrcWc-26" value="PSD: show document start" style="text;html=1;strokeColor=none;fillColor=none;align=center;verticalAlign=middle;whiteSpace=wrap;rounded=0;" parent="WIyWlLk6GJQsqaUBKTNV-1" vertex="1">
                    <mxGeometry x="300" y="400" width="90" height="30" as="geometry"/>
                </mxCell>
                <mxCell id="hNppUeTBCcueo2QdrcWc-40" value="" style="rounded=0;whiteSpace=wrap;html=1;" parent="WIyWlLk6GJQsqaUBKTNV-1" vertex="1">
                    <mxGeometry x="160" y="440" width="360" height="40" as="geometry"/>
                </mxCell>
                <mxCell id="hNppUeTBCcueo2QdrcWc-41" value="Show HTML Body" style="rounded=0;whiteSpace=wrap;html=1;" parent="WIyWlLk6GJQsqaUBKTNV-1" vertex="1">
                    <mxGeometry x="160" y="480" width="360" height="40" as="geometry"/>
                </mxCell>
                <mxCell id="hNppUeTBCcueo2QdrcWc-42" value="Show HTML footer" style="rounded=0;whiteSpace=wrap;html=1;" parent="WIyWlLk6GJQsqaUBKTNV-1" vertex="1">
                    <mxGeometry x="160" y="520" width="360" height="40" as="geometry"/>
                </mxCell>
                <mxCell id="hNppUeTBCcueo2QdrcWc-43" value="Show HTML Header" style="text;html=1;strokeColor=none;fillColor=none;align=center;verticalAlign=middle;whiteSpace=wrap;rounded=0;" parent="WIyWlLk6GJQsqaUBKTNV-1" vertex="1">
                    <mxGeometry x="280" y="445" width="120" height="30" as="geometry"/>
                </mxCell>
                <mxCell id="hNppUeTBCcueo2QdrcWc-47" value="PSD : show HTML header" style="text;html=1;strokeColor=none;fillColor=none;align=center;verticalAlign=middle;whiteSpace=wrap;rounded=0;" parent="WIyWlLk6GJQsqaUBKTNV-1" vertex="1">
                    <mxGeometry x="295" y="600" width="100" height="30" as="geometry"/>
                </mxCell>
                <mxCell id="hNppUeTBCcueo2QdrcWc-48" value="Show Title" style="rounded=0;whiteSpace=wrap;html=1;" parent="WIyWlLk6GJQsqaUBKTNV-1" vertex="1">
                    <mxGeometry x="160" y="640" width="360" height="40" as="geometry"/>
                </mxCell>
                <mxCell id="hNppUeTBCcueo2QdrcWc-49" value="Show link with CSS" style="rounded=0;whiteSpace=wrap;html=1;" parent="WIyWlLk6GJQsqaUBKTNV-1" vertex="1">
                    <mxGeometry x="160" y="680" width="360" height="40" as="geometry"/>
                </mxCell>
                <mxCell id="hNppUeTBCcueo2QdrcWc-50" value="Show HTML Body" style="text;html=1;strokeColor=none;fillColor=none;align=center;verticalAlign=middle;whiteSpace=wrap;rounded=0;" parent="WIyWlLk6GJQsqaUBKTNV-1" vertex="1">
                    <mxGeometry x="315" y="760" width="75" height="30" as="geometry"/>
                </mxCell>
                <mxCell id="hNppUeTBCcueo2QdrcWc-51" value="Show body start" style="rounded=0;whiteSpace=wrap;html=1;" parent="WIyWlLk6GJQsqaUBKTNV-1" vertex="1">
                    <mxGeometry x="160" y="800" width="360" height="40" as="geometry"/>
                </mxCell>
                <mxCell id="hNppUeTBCcueo2QdrcWc-52" value="Show Header" style="rounded=0;whiteSpace=wrap;html=1;" parent="WIyWlLk6GJQsqaUBKTNV-1" vertex="1">
                    <mxGeometry x="160" y="840" width="360" height="40" as="geometry"/>
                </mxCell>
                <mxCell id="hNppUeTBCcueo2QdrcWc-53" value="Show Menu" style="rounded=0;whiteSpace=wrap;html=1;" parent="WIyWlLk6GJQsqaUBKTNV-1" vertex="1">
                    <mxGeometry x="160" y="880" width="360" height="40" as="geometry"/>
                </mxCell>
                <mxCell id="hNppUeTBCcueo2QdrcWc-54" value="Show Content" style="rounded=0;whiteSpace=wrap;html=1;" parent="WIyWlLk6GJQsqaUBKTNV-1" vertex="1">
                    <mxGeometry x="160" y="920" width="360" height="40" as="geometry"/>
                </mxCell>
                <mxCell id="hNppUeTBCcueo2QdrcWc-55" value="Show Footer" style="rounded=0;whiteSpace=wrap;html=1;" parent="WIyWlLk6GJQsqaUBKTNV-1" vertex="1">
                    <mxGeometry x="160" y="960" width="360" height="40" as="geometry"/>
                </mxCell>
                <mxCell id="hNppUeTBCcueo2QdrcWc-56" value="Show body end" style="rounded=0;whiteSpace=wrap;html=1;" parent="WIyWlLk6GJQsqaUBKTNV-1" vertex="1">
                    <mxGeometry x="160" y="1000" width="360" height="40" as="geometry"/>
                </mxCell>
            </root>
        </mxGraphModel>
    </diagram>
    <diagram id="RG1cRNQeeQl86YP6Rbhd" name="Page-2">
        <mxGraphModel dx="1242" dy="547" grid="1" gridSize="10" guides="1" tooltips="1" connect="1" arrows="1" fold="1" page="1" pageScale="1" pageWidth="850" pageHeight="1100" math="0" shadow="0">
            <root>
                <mxCell id="0"/>
                <mxCell id="1" parent="0"/>
                <mxCell id="vC8PAEDVLSM5KwKHSJb1-1" value="Show Header start" style="rounded=0;whiteSpace=wrap;html=1;" parent="1" vertex="1">
                    <mxGeometry x="200" y="80" width="400" height="40" as="geometry"/>
                </mxCell>
                <mxCell id="vC8PAEDVLSM5KwKHSJb1-2" value="Show&amp;nbsp; Header" style="text;html=1;strokeColor=none;fillColor=none;align=center;verticalAlign=middle;whiteSpace=wrap;rounded=0;" parent="1" vertex="1">
                    <mxGeometry x="350" y="40" width="70" height="30" as="geometry"/>
                </mxCell>
                <mxCell id="vC8PAEDVLSM5KwKHSJb1-3" value="Show Header" style="rounded=0;whiteSpace=wrap;html=1;" parent="1" vertex="1">
                    <mxGeometry x="200" y="120" width="400" height="40" as="geometry"/>
                </mxCell>
                <mxCell id="vC8PAEDVLSM5KwKHSJb1-4" value="Show Header end" style="rounded=0;whiteSpace=wrap;html=1;" parent="1" vertex="1">
                    <mxGeometry x="200" y="160" width="400" height="40" as="geometry"/>
                </mxCell>
                <mxCell id="vC8PAEDVLSM5KwKHSJb1-8" value="Show Menu Start" style="rounded=0;whiteSpace=wrap;html=1;" parent="1" vertex="1">
                    <mxGeometry x="200" y="280" width="400" height="40" as="geometry"/>
                </mxCell>
                <mxCell id="vC8PAEDVLSM5KwKHSJb1-12" value="Show Menu Conents" style="rounded=0;whiteSpace=wrap;html=1;" parent="1" vertex="1">
                    <mxGeometry x="200" y="320" width="400" height="40" as="geometry"/>
                </mxCell>
                <mxCell id="vC8PAEDVLSM5KwKHSJb1-13" value="Show Menu End" style="rounded=0;whiteSpace=wrap;html=1;" parent="1" vertex="1">
                    <mxGeometry x="200" y="360" width="400" height="40" as="geometry"/>
                </mxCell>
                <mxCell id="vC8PAEDVLSM5KwKHSJb1-14" value="Show Menu" style="text;html=1;strokeColor=none;fillColor=none;align=center;verticalAlign=middle;whiteSpace=wrap;rounded=0;" parent="1" vertex="1">
                    <mxGeometry x="365" y="240" width="65" height="30" as="geometry"/>
                </mxCell>
                <mxCell id="vC8PAEDVLSM5KwKHSJb1-15" value="Show Content" style="text;html=1;strokeColor=none;fillColor=none;align=center;verticalAlign=middle;whiteSpace=wrap;rounded=0;" parent="1" vertex="1">
                    <mxGeometry x="360" y="430" width="60" height="30" as="geometry"/>
                </mxCell>
                <mxCell id="vC8PAEDVLSM5KwKHSJb1-16" value="" style="rounded=0;whiteSpace=wrap;html=1;" parent="1" vertex="1">
                    <mxGeometry x="200" y="480" width="400" height="120" as="geometry"/>
                </mxCell>
                <mxCell id="vC8PAEDVLSM5KwKHSJb1-18" value="" style="endArrow=none;html=1;rounded=0;exitX=0.5;exitY=1;exitDx=0;exitDy=0;entryX=1;entryY=0;entryDx=0;entryDy=0;" parent="1" source="vC8PAEDVLSM5KwKHSJb1-16" target="vC8PAEDVLSM5KwKHSJb1-16" edge="1">
                    <mxGeometry width="50" height="50" relative="1" as="geometry">
                        <mxPoint x="400" y="490" as="sourcePoint"/>
                        <mxPoint x="450" y="440" as="targetPoint"/>
                    </mxGeometry>
                </mxCell>
                <mxCell id="vC8PAEDVLSM5KwKHSJb1-19" value="" style="endArrow=none;html=1;rounded=0;entryX=0.5;entryY=1;entryDx=0;entryDy=0;exitX=0;exitY=0;exitDx=0;exitDy=0;" parent="1" source="vC8PAEDVLSM5KwKHSJb1-16" target="vC8PAEDVLSM5KwKHSJb1-16" edge="1">
                    <mxGeometry width="50" height="50" relative="1" as="geometry">
                        <mxPoint x="400" y="490" as="sourcePoint"/>
                        <mxPoint x="450" y="440" as="targetPoint"/>
                    </mxGeometry>
                </mxCell>
                <mxCell id="vC8PAEDVLSM5KwKHSJb1-20" value="" style="endArrow=none;html=1;rounded=0;entryX=0.199;entryY=1.011;entryDx=0;entryDy=0;entryPerimeter=0;" parent="1" target="vC8PAEDVLSM5KwKHSJb1-16" edge="1">
                    <mxGeometry width="50" height="50" relative="1" as="geometry">
                        <mxPoint x="280" y="530" as="sourcePoint"/>
                        <mxPoint x="450" y="440" as="targetPoint"/>
                    </mxGeometry>
                </mxCell>
                <mxCell id="vC8PAEDVLSM5KwKHSJb1-21" value="" style="endArrow=none;html=1;rounded=0;exitX=0.789;exitY=1.022;exitDx=0;exitDy=0;exitPerimeter=0;" parent="1" source="vC8PAEDVLSM5KwKHSJb1-16" edge="1">
                    <mxGeometry width="50" height="50" relative="1" as="geometry">
                        <mxPoint x="400" y="570" as="sourcePoint"/>
                        <mxPoint x="516" y="530" as="targetPoint"/>
                    </mxGeometry>
                </mxCell>
                <mxCell id="vC8PAEDVLSM5KwKHSJb1-22" value="" style="rounded=0;whiteSpace=wrap;html=1;" parent="1" vertex="1">
                    <mxGeometry x="200" y="600" width="400" height="80" as="geometry"/>
                </mxCell>
                <mxCell id="vC8PAEDVLSM5KwKHSJb1-23" value="" style="endArrow=none;html=1;rounded=0;entryX=0.788;entryY=0.008;entryDx=0;entryDy=0;entryPerimeter=0;exitX=0.784;exitY=1.05;exitDx=0;exitDy=0;exitPerimeter=0;" parent="1" source="vC8PAEDVLSM5KwKHSJb1-22" target="vC8PAEDVLSM5KwKHSJb1-22" edge="1">
                    <mxGeometry width="50" height="50" relative="1" as="geometry">
                        <mxPoint x="400" y="710" as="sourcePoint"/>
                        <mxPoint x="450" y="660" as="targetPoint"/>
                    </mxGeometry>
                </mxCell>
                <mxCell id="vC8PAEDVLSM5KwKHSJb1-25" value="" style="endArrow=none;html=1;rounded=0;entryX=0.5;entryY=0;entryDx=0;entryDy=0;" parent="1" target="vC8PAEDVLSM5KwKHSJb1-22" edge="1">
                    <mxGeometry width="50" height="50" relative="1" as="geometry">
                        <mxPoint x="400" y="680" as="sourcePoint"/>
                        <mxPoint x="450" y="660" as="targetPoint"/>
                    </mxGeometry>
                </mxCell>
                <mxCell id="vC8PAEDVLSM5KwKHSJb1-29" value="" style="endArrow=none;html=1;rounded=0;entryX=0.199;entryY=-0.025;entryDx=0;entryDy=0;entryPerimeter=0;exitX=0.194;exitY=1.017;exitDx=0;exitDy=0;exitPerimeter=0;" parent="1" source="vC8PAEDVLSM5KwKHSJb1-22" target="vC8PAEDVLSM5KwKHSJb1-22" edge="1">
                    <mxGeometry width="50" height="50" relative="1" as="geometry">
                        <mxPoint x="280" y="670" as="sourcePoint"/>
                        <mxPoint x="450" y="660" as="targetPoint"/>
                    </mxGeometry>
                </mxCell>
                <mxCell id="vC8PAEDVLSM5KwKHSJb1-30" value="Page?" style="text;html=1;strokeColor=none;fillColor=none;align=center;verticalAlign=middle;whiteSpace=wrap;rounded=0;" parent="1" vertex="1">
                    <mxGeometry x="367.5" y="520" width="60" height="30" as="geometry"/>
                </mxCell>
                <mxCell id="vC8PAEDVLSM5KwKHSJb1-31" value="Home" style="text;html=1;strokeColor=none;fillColor=none;align=center;verticalAlign=middle;whiteSpace=wrap;rounded=0;" parent="1" vertex="1">
                    <mxGeometry x="200" y="560" width="60" height="30" as="geometry"/>
                </mxCell>
                <mxCell id="vC8PAEDVLSM5KwKHSJb1-32" value="About" style="text;html=1;strokeColor=none;fillColor=none;align=center;verticalAlign=middle;whiteSpace=wrap;rounded=0;" parent="1" vertex="1">
                    <mxGeometry x="290" y="560" width="60" height="30" as="geometry"/>
                </mxCell>
                <mxCell id="vC8PAEDVLSM5KwKHSJb1-33" value="Anders" style="text;html=1;strokeColor=none;fillColor=none;align=center;verticalAlign=middle;whiteSpace=wrap;rounded=0;" parent="1" vertex="1">
                    <mxGeometry x="530" y="570" width="60" height="30" as="geometry"/>
                </mxCell>
                <mxCell id="vC8PAEDVLSM5KwKHSJb1-34" value="Contact" style="text;html=1;strokeColor=none;fillColor=none;align=center;verticalAlign=middle;whiteSpace=wrap;rounded=0;" parent="1" vertex="1">
                    <mxGeometry x="460" y="570" width="60" height="30" as="geometry"/>
                </mxCell>
                <mxCell id="vC8PAEDVLSM5KwKHSJb1-35" value="Show home content" style="text;html=1;strokeColor=none;fillColor=none;align=center;verticalAlign=middle;whiteSpace=wrap;rounded=0;" parent="1" vertex="1">
                    <mxGeometry x="210" y="620" width="60" height="30" as="geometry"/>
                </mxCell>
                <mxCell id="vC8PAEDVLSM5KwKHSJb1-36" value="Show about content" style="text;html=1;strokeColor=none;fillColor=none;align=center;verticalAlign=middle;whiteSpace=wrap;rounded=0;" parent="1" vertex="1">
                    <mxGeometry x="320" y="625" width="60" height="30" as="geometry"/>
                </mxCell>
                <mxCell id="vC8PAEDVLSM5KwKHSJb1-37" value="Show contact content" style="text;html=1;strokeColor=none;fillColor=none;align=center;verticalAlign=middle;whiteSpace=wrap;rounded=0;" parent="1" vertex="1">
                    <mxGeometry x="425" y="625" width="60" height="30" as="geometry"/>
                </mxCell>
                <mxCell id="vC8PAEDVLSM5KwKHSJb1-38" value="Show Error" style="text;html=1;strokeColor=none;fillColor=none;align=center;verticalAlign=middle;whiteSpace=wrap;rounded=0;" parent="1" vertex="1">
                    <mxGeometry x="530" y="630" width="60" height="30" as="geometry"/>
                </mxCell>
                <mxCell id="vC8PAEDVLSM5KwKHSJb1-39" value="Show contact content" style="text;html=1;strokeColor=none;fillColor=none;align=center;verticalAlign=middle;whiteSpace=wrap;rounded=0;" parent="1" vertex="1">
                    <mxGeometry x="360" y="720" width="80" height="30" as="geometry"/>
                </mxCell>
                <mxCell id="vC8PAEDVLSM5KwKHSJb1-40" value="Validatie Contact" style="rounded=0;whiteSpace=wrap;html=1;" parent="1" vertex="1">
                    <mxGeometry x="200" y="760" width="400" height="40" as="geometry"/>
                </mxCell>
                <mxCell id="vC8PAEDVLSM5KwKHSJb1-41" value="Valid?" style="rounded=0;whiteSpace=wrap;html=1;" parent="1" vertex="1">
                    <mxGeometry x="200" y="800" width="400" height="80" as="geometry"/>
                </mxCell>
                <mxCell id="vC8PAEDVLSM5KwKHSJb1-42" value="" style="rounded=0;whiteSpace=wrap;html=1;" parent="1" vertex="1">
                    <mxGeometry x="200" y="880" width="400" height="80" as="geometry"/>
                </mxCell>
                <mxCell id="vC8PAEDVLSM5KwKHSJb1-44" value="" style="endArrow=none;html=1;rounded=0;exitX=0;exitY=0;exitDx=0;exitDy=0;entryX=0.5;entryY=1;entryDx=0;entryDy=0;" parent="1" source="vC8PAEDVLSM5KwKHSJb1-41" target="vC8PAEDVLSM5KwKHSJb1-41" edge="1">
                    <mxGeometry width="50" height="50" relative="1" as="geometry">
                        <mxPoint x="400" y="930" as="sourcePoint"/>
                        <mxPoint x="450" y="880" as="targetPoint"/>
                    </mxGeometry>
                </mxCell>
                <mxCell id="vC8PAEDVLSM5KwKHSJb1-45" value="" style="endArrow=none;html=1;rounded=0;entryX=1;entryY=0;entryDx=0;entryDy=0;" parent="1" target="vC8PAEDVLSM5KwKHSJb1-41" edge="1">
                    <mxGeometry width="50" height="50" relative="1" as="geometry">
                        <mxPoint x="400" y="880" as="sourcePoint"/>
                        <mxPoint x="450" y="880" as="targetPoint"/>
                    </mxGeometry>
                </mxCell>
                <mxCell id="vC8PAEDVLSM5KwKHSJb1-46" value="False" style="text;html=1;strokeColor=none;fillColor=none;align=center;verticalAlign=middle;whiteSpace=wrap;rounded=0;" parent="1" vertex="1">
                    <mxGeometry x="220" y="840" width="60" height="30" as="geometry"/>
                </mxCell>
                <mxCell id="vC8PAEDVLSM5KwKHSJb1-47" value="True" style="text;html=1;strokeColor=none;fillColor=none;align=center;verticalAlign=middle;whiteSpace=wrap;rounded=0;" parent="1" vertex="1">
                    <mxGeometry x="520" y="840" width="60" height="30" as="geometry"/>
                </mxCell>
                <mxCell id="vC8PAEDVLSM5KwKHSJb1-50" value="" style="endArrow=none;html=1;rounded=0;exitX=0.5;exitY=1;exitDx=0;exitDy=0;" parent="1" source="vC8PAEDVLSM5KwKHSJb1-42" edge="1">
                    <mxGeometry width="50" height="50" relative="1" as="geometry">
                        <mxPoint x="400" y="930" as="sourcePoint"/>
                        <mxPoint x="400" y="880" as="targetPoint"/>
                    </mxGeometry>
                </mxCell>
                <mxCell id="vC8PAEDVLSM5KwKHSJb1-51" value="Show Contact Form" style="text;html=1;strokeColor=none;fillColor=none;align=center;verticalAlign=middle;whiteSpace=wrap;rounded=0;" parent="1" vertex="1">
                    <mxGeometry x="250" y="900" width="60" height="30" as="geometry"/>
                </mxCell>
                <mxCell id="vC8PAEDVLSM5KwKHSJb1-52" value="Show Contact Thanks" style="text;html=1;strokeColor=none;fillColor=none;align=center;verticalAlign=middle;whiteSpace=wrap;rounded=0;" parent="1" vertex="1">
                    <mxGeometry x="470" y="900" width="60" height="30" as="geometry"/>
                </mxCell>
            </root>
        </mxGraphModel>
    </diagram>
    <diagram id="gikpwTxNODtyWTsM0xY_" name="Page-3">
        <mxGraphModel dx="1242" dy="547" grid="1" gridSize="10" guides="1" tooltips="1" connect="1" arrows="1" fold="1" page="1" pageScale="1" pageWidth="850" pageHeight="1100" math="0" shadow="0">
            <root>
                <mxCell id="0"/>
                <mxCell id="1" parent="0"/>
                <mxCell id="7IWfpjodlrdHWXvk8CLF-3" value="" style="rounded=0;whiteSpace=wrap;html=1;" parent="1" vertex="1">
                    <mxGeometry x="80" y="30" width="680" height="50" as="geometry"/>
                </mxCell>
                <mxCell id="rOORRpgIX8pTfMImWT3K-1" value="Validate Contact" style="text;html=1;strokeColor=none;fillColor=none;align=center;verticalAlign=middle;whiteSpace=wrap;rounded=0;" parent="1" vertex="1">
                    <mxGeometry x="275" width="210" height="40" as="geometry"/>
                </mxCell>
                <mxCell id="rOORRpgIX8pTfMImWT3K-2" value="" style="rounded=0;whiteSpace=wrap;html=1;" parent="1" vertex="1">
                    <mxGeometry x="80" y="80" width="680" height="80" as="geometry"/>
                </mxCell>
                <mxCell id="rOORRpgIX8pTfMImWT3K-3" value="" style="endArrow=none;html=1;rounded=0;entryX=1;entryY=0;entryDx=0;entryDy=0;exitX=0.448;exitY=1;exitDx=0;exitDy=0;exitPerimeter=0;" parent="1" source="rOORRpgIX8pTfMImWT3K-2" target="rOORRpgIX8pTfMImWT3K-2" edge="1">
                    <mxGeometry width="50" height="50" relative="1" as="geometry">
                        <mxPoint x="400" y="260" as="sourcePoint"/>
                        <mxPoint x="450" y="210" as="targetPoint"/>
                    </mxGeometry>
                </mxCell>
                <mxCell id="rOORRpgIX8pTfMImWT3K-4" value="" style="endArrow=none;html=1;rounded=0;exitX=0;exitY=0;exitDx=0;exitDy=0;" parent="1" source="rOORRpgIX8pTfMImWT3K-2" edge="1">
                    <mxGeometry width="50" height="50" relative="1" as="geometry">
                        <mxPoint x="400" y="260" as="sourcePoint"/>
                        <mxPoint x="390" y="160" as="targetPoint"/>
                    </mxGeometry>
                </mxCell>
                <mxCell id="rOORRpgIX8pTfMImWT3K-6" value="Get" style="text;html=1;strokeColor=none;fillColor=none;align=center;verticalAlign=middle;whiteSpace=wrap;rounded=0;" parent="1" vertex="1">
                    <mxGeometry x="120" y="110" width="60" height="30" as="geometry"/>
                </mxCell>
                <mxCell id="rOORRpgIX8pTfMImWT3K-7" value="Post" style="text;html=1;strokeColor=none;fillColor=none;align=center;verticalAlign=middle;whiteSpace=wrap;rounded=0;" parent="1" vertex="1">
                    <mxGeometry x="650" y="110" width="60" height="30" as="geometry"/>
                </mxCell>
                <mxCell id="rOORRpgIX8pTfMImWT3K-8" value="" style="rounded=0;whiteSpace=wrap;html=1;" parent="1" vertex="1">
                    <mxGeometry x="80" y="160" width="310" height="1160" as="geometry"/>
                </mxCell>
                <mxCell id="rOORRpgIX8pTfMImWT3K-9" value="" style="rounded=0;whiteSpace=wrap;html=1;" parent="1" vertex="1">
                    <mxGeometry x="390" y="80" width="370" height="910" as="geometry"/>
                </mxCell>
                <mxCell id="rOORRpgIX8pTfMImWT3K-10" value="" style="rounded=0;whiteSpace=wrap;html=1;" parent="1" vertex="1">
                    <mxGeometry x="390" y="160" width="370" height="70" as="geometry"/>
                </mxCell>
                <mxCell id="rOORRpgIX8pTfMImWT3K-11" value="" style="rounded=0;whiteSpace=wrap;html=1;" parent="1" vertex="1">
                    <mxGeometry x="390" y="230" width="370" height="50" as="geometry"/>
                </mxCell>
                <mxCell id="rOORRpgIX8pTfMImWT3K-12" style="edgeStyle=orthogonalEdgeStyle;rounded=0;orthogonalLoop=1;jettySize=auto;html=1;exitX=0.5;exitY=1;exitDx=0;exitDy=0;" parent="1" source="rOORRpgIX8pTfMImWT3K-11" target="rOORRpgIX8pTfMImWT3K-11" edge="1">
                    <mxGeometry relative="1" as="geometry"/>
                </mxCell>
                <mxCell id="rOORRpgIX8pTfMImWT3K-13" value="" style="endArrow=none;html=1;rounded=0;entryX=0;entryY=0;entryDx=0;entryDy=0;exitX=0.5;exitY=0;exitDx=0;exitDy=0;" parent="1" source="rOORRpgIX8pTfMImWT3K-11" target="rOORRpgIX8pTfMImWT3K-10" edge="1">
                    <mxGeometry width="50" height="50" relative="1" as="geometry">
                        <mxPoint x="400" y="330" as="sourcePoint"/>
                        <mxPoint x="450" y="280" as="targetPoint"/>
                    </mxGeometry>
                </mxCell>
                <mxCell id="rOORRpgIX8pTfMImWT3K-14" value="" style="endArrow=none;html=1;rounded=0;entryX=1;entryY=0;entryDx=0;entryDy=0;exitX=0.5;exitY=0;exitDx=0;exitDy=0;" parent="1" source="rOORRpgIX8pTfMImWT3K-11" target="rOORRpgIX8pTfMImWT3K-10" edge="1">
                    <mxGeometry width="50" height="50" relative="1" as="geometry">
                        <mxPoint x="400" y="330" as="sourcePoint"/>
                        <mxPoint x="450" y="280" as="targetPoint"/>
                    </mxGeometry>
                </mxCell>
                <mxCell id="rOORRpgIX8pTfMImWT3K-15" value="" style="endArrow=none;html=1;rounded=0;entryX=0.5;entryY=0;entryDx=0;entryDy=0;exitX=0.5;exitY=1;exitDx=0;exitDy=0;" parent="1" source="rOORRpgIX8pTfMImWT3K-11" target="rOORRpgIX8pTfMImWT3K-11" edge="1">
                    <mxGeometry width="50" height="50" relative="1" as="geometry">
                        <mxPoint x="400" y="330" as="sourcePoint"/>
                        <mxPoint x="450" y="280" as="targetPoint"/>
                    </mxGeometry>
                </mxCell>
                <mxCell id="rOORRpgIX8pTfMImWT3K-16" value="Aanhref leeg?" style="text;html=1;strokeColor=none;fillColor=none;align=center;verticalAlign=middle;whiteSpace=wrap;rounded=0;" parent="1" vertex="1">
                    <mxGeometry x="545" y="170" width="60" height="30" as="geometry"/>
                </mxCell>
                <mxCell id="rOORRpgIX8pTfMImWT3K-17" value="True" style="text;html=1;strokeColor=none;fillColor=none;align=center;verticalAlign=middle;whiteSpace=wrap;rounded=0;" parent="1" vertex="1">
                    <mxGeometry x="400" y="200" width="60" height="30" as="geometry"/>
                </mxCell>
                <mxCell id="rOORRpgIX8pTfMImWT3K-18" value="False" style="text;html=1;strokeColor=none;fillColor=none;align=center;verticalAlign=middle;whiteSpace=wrap;rounded=0;" parent="1" vertex="1">
                    <mxGeometry x="680" y="200" width="60" height="30" as="geometry"/>
                </mxCell>
                <mxCell id="rOORRpgIX8pTfMImWT3K-19" value="aanhref error" style="text;html=1;strokeColor=none;fillColor=none;align=center;verticalAlign=middle;whiteSpace=wrap;rounded=0;" parent="1" vertex="1">
                    <mxGeometry x="415" y="250" width="60" height="30" as="geometry"/>
                </mxCell>
                <mxCell id="rOORRpgIX8pTfMImWT3K-20" value="aanhref" style="text;html=1;strokeColor=none;fillColor=none;align=center;verticalAlign=middle;whiteSpace=wrap;rounded=0;" parent="1" vertex="1">
                    <mxGeometry x="660" y="250" width="60" height="30" as="geometry"/>
                </mxCell>
                <mxCell id="rOORRpgIX8pTfMImWT3K-22" value="" style="rounded=0;whiteSpace=wrap;html=1;" parent="1" vertex="1">
                    <mxGeometry x="390" y="280" width="370" height="80" as="geometry"/>
                </mxCell>
                <mxCell id="rOORRpgIX8pTfMImWT3K-23" value="" style="rounded=0;whiteSpace=wrap;html=1;" parent="1" vertex="1">
                    <mxGeometry x="390" y="360" width="370" height="60" as="geometry"/>
                </mxCell>
                <mxCell id="rOORRpgIX8pTfMImWT3K-24" value="" style="endArrow=none;html=1;rounded=0;entryX=0.5;entryY=0;entryDx=0;entryDy=0;exitX=0.5;exitY=1;exitDx=0;exitDy=0;" parent="1" source="rOORRpgIX8pTfMImWT3K-23" target="rOORRpgIX8pTfMImWT3K-23" edge="1">
                    <mxGeometry width="50" height="50" relative="1" as="geometry">
                        <mxPoint x="400" y="380" as="sourcePoint"/>
                        <mxPoint x="450" y="330" as="targetPoint"/>
                    </mxGeometry>
                </mxCell>
                <mxCell id="rOORRpgIX8pTfMImWT3K-25" value="" style="endArrow=none;html=1;rounded=0;entryX=0.5;entryY=1;entryDx=0;entryDy=0;exitX=0;exitY=0;exitDx=0;exitDy=0;" parent="1" source="rOORRpgIX8pTfMImWT3K-22" target="rOORRpgIX8pTfMImWT3K-22" edge="1">
                    <mxGeometry width="50" height="50" relative="1" as="geometry">
                        <mxPoint x="400" y="380" as="sourcePoint"/>
                        <mxPoint x="450" y="330" as="targetPoint"/>
                    </mxGeometry>
                </mxCell>
                <mxCell id="rOORRpgIX8pTfMImWT3K-26" value="" style="endArrow=none;html=1;rounded=0;entryX=0.5;entryY=1;entryDx=0;entryDy=0;exitX=1;exitY=0;exitDx=0;exitDy=0;" parent="1" source="rOORRpgIX8pTfMImWT3K-22" target="rOORRpgIX8pTfMImWT3K-22" edge="1">
                    <mxGeometry width="50" height="50" relative="1" as="geometry">
                        <mxPoint x="400" y="380" as="sourcePoint"/>
                        <mxPoint x="450" y="330" as="targetPoint"/>
                    </mxGeometry>
                </mxCell>
                <mxCell id="rOORRpgIX8pTfMImWT3K-27" value="" style="rounded=0;whiteSpace=wrap;html=1;" parent="1" vertex="1">
                    <mxGeometry x="390" y="420" width="370" height="90" as="geometry"/>
                </mxCell>
                <mxCell id="rOORRpgIX8pTfMImWT3K-28" value="" style="endArrow=none;html=1;rounded=0;entryX=0.5;entryY=1;entryDx=0;entryDy=0;" parent="1" target="rOORRpgIX8pTfMImWT3K-27" edge="1">
                    <mxGeometry width="50" height="50" relative="1" as="geometry">
                        <mxPoint x="390" y="420" as="sourcePoint"/>
                        <mxPoint x="450" y="400" as="targetPoint"/>
                    </mxGeometry>
                </mxCell>
                <mxCell id="rOORRpgIX8pTfMImWT3K-29" value="" style="endArrow=none;html=1;rounded=0;entryX=1;entryY=0;entryDx=0;entryDy=0;exitX=0.5;exitY=1;exitDx=0;exitDy=0;" parent="1" source="rOORRpgIX8pTfMImWT3K-27" target="rOORRpgIX8pTfMImWT3K-27" edge="1">
                    <mxGeometry width="50" height="50" relative="1" as="geometry">
                        <mxPoint x="400" y="450" as="sourcePoint"/>
                        <mxPoint x="450" y="400" as="targetPoint"/>
                    </mxGeometry>
                </mxCell>
                <mxCell id="rOORRpgIX8pTfMImWT3K-30" value="" style="rounded=0;whiteSpace=wrap;html=1;" parent="1" vertex="1">
                    <mxGeometry x="390" y="510" width="370" height="60" as="geometry"/>
                </mxCell>
                <mxCell id="rOORRpgIX8pTfMImWT3K-31" value="" style="endArrow=none;html=1;rounded=0;entryX=0.5;entryY=0;entryDx=0;entryDy=0;exitX=0.5;exitY=1;exitDx=0;exitDy=0;" parent="1" source="rOORRpgIX8pTfMImWT3K-30" target="rOORRpgIX8pTfMImWT3K-30" edge="1">
                    <mxGeometry width="50" height="50" relative="1" as="geometry">
                        <mxPoint x="400" y="600" as="sourcePoint"/>
                        <mxPoint x="450" y="550" as="targetPoint"/>
                    </mxGeometry>
                </mxCell>
                <mxCell id="rOORRpgIX8pTfMImWT3K-32" value="" style="rounded=0;whiteSpace=wrap;html=1;" parent="1" vertex="1">
                    <mxGeometry x="390" y="570" width="370" height="80" as="geometry"/>
                </mxCell>
                <mxCell id="rOORRpgIX8pTfMImWT3K-33" value="" style="endArrow=none;html=1;rounded=0;entryX=1;entryY=0;entryDx=0;entryDy=0;exitX=0.5;exitY=0;exitDx=0;exitDy=0;" parent="1" source="rOORRpgIX8pTfMImWT3K-35" target="rOORRpgIX8pTfMImWT3K-32" edge="1">
                    <mxGeometry width="50" height="50" relative="1" as="geometry">
                        <mxPoint x="580" y="650" as="sourcePoint"/>
                        <mxPoint x="450" y="680" as="targetPoint"/>
                    </mxGeometry>
                </mxCell>
                <mxCell id="rOORRpgIX8pTfMImWT3K-34" value="" style="endArrow=none;html=1;rounded=0;entryX=0.5;entryY=1;entryDx=0;entryDy=0;exitX=0.005;exitY=0.1;exitDx=0;exitDy=0;exitPerimeter=0;" parent="1" source="rOORRpgIX8pTfMImWT3K-32" target="rOORRpgIX8pTfMImWT3K-32" edge="1">
                    <mxGeometry width="50" height="50" relative="1" as="geometry">
                        <mxPoint x="400" y="730" as="sourcePoint"/>
                        <mxPoint x="450" y="680" as="targetPoint"/>
                    </mxGeometry>
                </mxCell>
                <mxCell id="rOORRpgIX8pTfMImWT3K-35" value="" style="rounded=0;whiteSpace=wrap;html=1;" parent="1" vertex="1">
                    <mxGeometry x="390" y="650" width="370" height="60" as="geometry"/>
                </mxCell>
                <mxCell id="rOORRpgIX8pTfMImWT3K-36" value="" style="endArrow=none;html=1;rounded=0;entryX=0.5;entryY=0;entryDx=0;entryDy=0;exitX=0.5;exitY=1;exitDx=0;exitDy=0;" parent="1" source="rOORRpgIX8pTfMImWT3K-35" target="rOORRpgIX8pTfMImWT3K-35" edge="1">
                    <mxGeometry width="50" height="50" relative="1" as="geometry">
                        <mxPoint x="400" y="730" as="sourcePoint"/>
                        <mxPoint x="450" y="680" as="targetPoint"/>
                    </mxGeometry>
                </mxCell>
                <mxCell id="rOORRpgIX8pTfMImWT3K-37" value="" style="rounded=0;whiteSpace=wrap;html=1;" parent="1" vertex="1">
                    <mxGeometry x="390" y="710" width="370" height="80" as="geometry"/>
                </mxCell>
                <mxCell id="rOORRpgIX8pTfMImWT3K-38" value="" style="rounded=0;whiteSpace=wrap;html=1;" parent="1" vertex="1">
                    <mxGeometry x="390" y="790" width="370" height="60" as="geometry"/>
                </mxCell>
                <mxCell id="rOORRpgIX8pTfMImWT3K-39" value="" style="endArrow=none;html=1;rounded=0;entryX=1;entryY=0;entryDx=0;entryDy=0;exitX=0.5;exitY=1;exitDx=0;exitDy=0;" parent="1" source="rOORRpgIX8pTfMImWT3K-37" target="rOORRpgIX8pTfMImWT3K-37" edge="1">
                    <mxGeometry width="50" height="50" relative="1" as="geometry">
                        <mxPoint x="400" y="800" as="sourcePoint"/>
                        <mxPoint x="450" y="750" as="targetPoint"/>
                    </mxGeometry>
                </mxCell>
                <mxCell id="rOORRpgIX8pTfMImWT3K-40" value="" style="endArrow=none;html=1;rounded=0;entryX=0;entryY=0;entryDx=0;entryDy=0;exitX=0.5;exitY=0;exitDx=0;exitDy=0;" parent="1" source="rOORRpgIX8pTfMImWT3K-38" target="rOORRpgIX8pTfMImWT3K-37" edge="1">
                    <mxGeometry width="50" height="50" relative="1" as="geometry">
                        <mxPoint x="400" y="800" as="sourcePoint"/>
                        <mxPoint x="450" y="750" as="targetPoint"/>
                    </mxGeometry>
                </mxCell>
                <mxCell id="rOORRpgIX8pTfMImWT3K-41" value="" style="endArrow=none;html=1;rounded=0;" parent="1" edge="1">
                    <mxGeometry width="50" height="50" relative="1" as="geometry">
                        <mxPoint x="574.5" y="850" as="sourcePoint"/>
                        <mxPoint x="574.5" y="790" as="targetPoint"/>
                    </mxGeometry>
                </mxCell>
                <mxCell id="rOORRpgIX8pTfMImWT3K-42" value="" style="rounded=0;whiteSpace=wrap;html=1;" parent="1" vertex="1">
                    <mxGeometry x="390" y="850" width="370" height="80" as="geometry"/>
                </mxCell>
                <mxCell id="rOORRpgIX8pTfMImWT3K-43" value="" style="endArrow=none;html=1;rounded=0;entryX=1;entryY=0;entryDx=0;entryDy=0;exitX=0.5;exitY=1;exitDx=0;exitDy=0;" parent="1" source="rOORRpgIX8pTfMImWT3K-42" target="rOORRpgIX8pTfMImWT3K-42" edge="1">
                    <mxGeometry width="50" height="50" relative="1" as="geometry">
                        <mxPoint x="400" y="800" as="sourcePoint"/>
                        <mxPoint x="450" y="750" as="targetPoint"/>
                    </mxGeometry>
                </mxCell>
                <mxCell id="rOORRpgIX8pTfMImWT3K-44" value="" style="endArrow=none;html=1;rounded=0;entryX=0.5;entryY=1;entryDx=0;entryDy=0;exitX=0;exitY=0;exitDx=0;exitDy=0;" parent="1" source="rOORRpgIX8pTfMImWT3K-42" target="rOORRpgIX8pTfMImWT3K-42" edge="1">
                    <mxGeometry width="50" height="50" relative="1" as="geometry">
                        <mxPoint x="400" y="800" as="sourcePoint"/>
                        <mxPoint x="450" y="750" as="targetPoint"/>
                    </mxGeometry>
                </mxCell>
                <mxCell id="rOORRpgIX8pTfMImWT3K-45" value="" style="endArrow=none;html=1;rounded=0;" parent="1" edge="1">
                    <mxGeometry width="50" height="50" relative="1" as="geometry">
                        <mxPoint x="570" y="990" as="sourcePoint"/>
                        <mxPoint x="570" y="930" as="targetPoint"/>
                    </mxGeometry>
                </mxCell>
                <mxCell id="rOORRpgIX8pTfMImWT3K-46" value="" style="rounded=0;whiteSpace=wrap;html=1;" parent="1" vertex="1">
                    <mxGeometry x="390" y="990" width="370" height="100" as="geometry"/>
                </mxCell>
                <mxCell id="rOORRpgIX8pTfMImWT3K-47" value="" style="rounded=0;whiteSpace=wrap;html=1;" parent="1" vertex="1">
                    <mxGeometry x="390" y="1090" width="370" height="70" as="geometry"/>
                </mxCell>
                <mxCell id="rOORRpgIX8pTfMImWT3K-48" value="" style="endArrow=none;html=1;rounded=0;entryX=0.5;entryY=0;entryDx=0;entryDy=0;exitX=0;exitY=0;exitDx=0;exitDy=0;" parent="1" source="rOORRpgIX8pTfMImWT3K-46" target="rOORRpgIX8pTfMImWT3K-47" edge="1">
                    <mxGeometry width="50" height="50" relative="1" as="geometry">
                        <mxPoint x="400" y="1020" as="sourcePoint"/>
                        <mxPoint x="450" y="970" as="targetPoint"/>
                    </mxGeometry>
                </mxCell>
                <mxCell id="rOORRpgIX8pTfMImWT3K-49" value="" style="endArrow=none;html=1;rounded=0;entryX=1;entryY=0;entryDx=0;entryDy=0;exitX=0.5;exitY=1;exitDx=0;exitDy=0;" parent="1" source="rOORRpgIX8pTfMImWT3K-46" target="rOORRpgIX8pTfMImWT3K-46" edge="1">
                    <mxGeometry width="50" height="50" relative="1" as="geometry">
                        <mxPoint x="575" y="1070" as="sourcePoint"/>
                        <mxPoint x="450" y="970" as="targetPoint"/>
                    </mxGeometry>
                </mxCell>
                <mxCell id="rOORRpgIX8pTfMImWT3K-50" value="" style="endArrow=none;html=1;rounded=0;entryX=0.5;entryY=0;entryDx=0;entryDy=0;exitX=0.5;exitY=1;exitDx=0;exitDy=0;" parent="1" source="rOORRpgIX8pTfMImWT3K-47" target="rOORRpgIX8pTfMImWT3K-47" edge="1">
                    <mxGeometry width="50" height="50" relative="1" as="geometry">
                        <mxPoint x="400" y="1020" as="sourcePoint"/>
                        <mxPoint x="450" y="970" as="targetPoint"/>
                    </mxGeometry>
                </mxCell>
                <mxCell id="rOORRpgIX8pTfMImWT3K-51" value="True" style="text;html=1;strokeColor=none;fillColor=none;align=center;verticalAlign=middle;whiteSpace=wrap;rounded=0;" parent="1" vertex="1">
                    <mxGeometry x="415" y="320" width="60" height="30" as="geometry"/>
                </mxCell>
                <mxCell id="rOORRpgIX8pTfMImWT3K-52" value="First Name leeg?" style="text;html=1;strokeColor=none;fillColor=none;align=center;verticalAlign=middle;whiteSpace=wrap;rounded=0;" parent="1" vertex="1">
                    <mxGeometry x="545" y="305" width="60" height="30" as="geometry"/>
                </mxCell>
                <mxCell id="rOORRpgIX8pTfMImWT3K-53" value="False" style="text;html=1;strokeColor=none;fillColor=none;align=center;verticalAlign=middle;whiteSpace=wrap;rounded=0;" parent="1" vertex="1">
                    <mxGeometry x="670" y="320" width="60" height="30" as="geometry"/>
                </mxCell>
                <mxCell id="rOORRpgIX8pTfMImWT3K-54" value="First Name error" style="text;html=1;strokeColor=none;fillColor=none;align=center;verticalAlign=middle;whiteSpace=wrap;rounded=0;" parent="1" vertex="1">
                    <mxGeometry x="415" y="375" width="60" height="30" as="geometry"/>
                </mxCell>
                <mxCell id="rOORRpgIX8pTfMImWT3K-55" value="First Name" style="text;html=1;strokeColor=none;fillColor=none;align=center;verticalAlign=middle;whiteSpace=wrap;rounded=0;" parent="1" vertex="1">
                    <mxGeometry x="670" y="375" width="60" height="30" as="geometry"/>
                </mxCell>
                <mxCell id="rOORRpgIX8pTfMImWT3K-56" value="Last Name laag?" style="text;html=1;strokeColor=none;fillColor=none;align=center;verticalAlign=middle;whiteSpace=wrap;rounded=0;" parent="1" vertex="1">
                    <mxGeometry x="530" y="440" width="60" height="30" as="geometry"/>
                </mxCell>
                <mxCell id="rOORRpgIX8pTfMImWT3K-57" value="True" style="text;html=1;strokeColor=none;fillColor=none;align=center;verticalAlign=middle;whiteSpace=wrap;rounded=0;" parent="1" vertex="1">
                    <mxGeometry x="390" y="470" width="60" height="30" as="geometry"/>
                </mxCell>
                <mxCell id="rOORRpgIX8pTfMImWT3K-58" value="False" style="text;html=1;strokeColor=none;fillColor=none;align=center;verticalAlign=middle;whiteSpace=wrap;rounded=0;" parent="1" vertex="1">
                    <mxGeometry x="680" y="470" width="60" height="30" as="geometry"/>
                </mxCell>
                <mxCell id="rOORRpgIX8pTfMImWT3K-59" value="Last Name error" style="text;html=1;strokeColor=none;fillColor=none;align=center;verticalAlign=middle;whiteSpace=wrap;rounded=0;" parent="1" vertex="1">
                    <mxGeometry x="400" y="525" width="60" height="30" as="geometry"/>
                </mxCell>
                <mxCell id="rOORRpgIX8pTfMImWT3K-60" value="Last Name" style="text;html=1;strokeColor=none;fillColor=none;align=center;verticalAlign=middle;whiteSpace=wrap;rounded=0;" parent="1" vertex="1">
                    <mxGeometry x="670" y="525" width="60" height="30" as="geometry"/>
                </mxCell>
                <mxCell id="rOORRpgIX8pTfMImWT3K-62" value="Email leeg?" style="text;html=1;strokeColor=none;fillColor=none;align=center;verticalAlign=middle;whiteSpace=wrap;rounded=0;" parent="1" vertex="1">
                    <mxGeometry x="540" y="580" width="60" height="30" as="geometry"/>
                </mxCell>
                <mxCell id="rOORRpgIX8pTfMImWT3K-63" value="True" style="text;html=1;strokeColor=none;fillColor=none;align=center;verticalAlign=middle;whiteSpace=wrap;rounded=0;" parent="1" vertex="1">
                    <mxGeometry x="400" y="610" width="60" height="30" as="geometry"/>
                </mxCell>
                <mxCell id="rOORRpgIX8pTfMImWT3K-64" value="False" style="text;html=1;strokeColor=none;fillColor=none;align=center;verticalAlign=middle;whiteSpace=wrap;rounded=0;" parent="1" vertex="1">
                    <mxGeometry x="680" y="610" width="60" height="30" as="geometry"/>
                </mxCell>
                <mxCell id="rOORRpgIX8pTfMImWT3K-65" value="Email error" style="text;html=1;strokeColor=none;fillColor=none;align=center;verticalAlign=middle;whiteSpace=wrap;rounded=0;" parent="1" vertex="1">
                    <mxGeometry x="400" y="665" width="60" height="30" as="geometry"/>
                </mxCell>
                <mxCell id="rOORRpgIX8pTfMImWT3K-66" value="Email" style="text;html=1;strokeColor=none;fillColor=none;align=center;verticalAlign=middle;whiteSpace=wrap;rounded=0;" parent="1" vertex="1">
                    <mxGeometry x="660" y="665" width="60" height="30" as="geometry"/>
                </mxCell>
                <mxCell id="rOORRpgIX8pTfMImWT3K-67" value="Telefoon leeg?" style="text;html=1;strokeColor=none;fillColor=none;align=center;verticalAlign=middle;whiteSpace=wrap;rounded=0;" parent="1" vertex="1">
                    <mxGeometry x="545" y="720" width="60" height="30" as="geometry"/>
                </mxCell>
                <mxCell id="rOORRpgIX8pTfMImWT3K-68" value="False" style="text;html=1;strokeColor=none;fillColor=none;align=center;verticalAlign=middle;whiteSpace=wrap;rounded=0;" parent="1" vertex="1">
                    <mxGeometry x="670" y="750" width="60" height="30" as="geometry"/>
                </mxCell>
                <mxCell id="rOORRpgIX8pTfMImWT3K-69" value="True" style="text;html=1;strokeColor=none;fillColor=none;align=center;verticalAlign=middle;whiteSpace=wrap;rounded=0;" parent="1" vertex="1">
                    <mxGeometry x="415" y="750" width="60" height="30" as="geometry"/>
                </mxCell>
                <mxCell id="rOORRpgIX8pTfMImWT3K-70" value="Telefoon Error" style="text;html=1;strokeColor=none;fillColor=none;align=center;verticalAlign=middle;whiteSpace=wrap;rounded=0;" parent="1" vertex="1">
                    <mxGeometry x="425" y="805" width="60" height="30" as="geometry"/>
                </mxCell>
                <mxCell id="rOORRpgIX8pTfMImWT3K-71" value="Telefoon" style="text;html=1;strokeColor=none;fillColor=none;align=center;verticalAlign=middle;whiteSpace=wrap;rounded=0;" parent="1" vertex="1">
                    <mxGeometry x="670" y="805" width="60" height="30" as="geometry"/>
                </mxCell>
                <mxCell id="rOORRpgIX8pTfMImWT3K-72" value="Hoe kunnen bereiken leeg?" style="text;html=1;strokeColor=none;fillColor=none;align=center;verticalAlign=middle;whiteSpace=wrap;rounded=0;" parent="1" vertex="1">
                    <mxGeometry x="540" y="875" width="60" height="30" as="geometry"/>
                </mxCell>
                <mxCell id="rOORRpgIX8pTfMImWT3K-73" value="True" style="text;html=1;strokeColor=none;fillColor=none;align=center;verticalAlign=middle;whiteSpace=wrap;rounded=0;" parent="1" vertex="1">
                    <mxGeometry x="400" y="890" width="60" height="30" as="geometry"/>
                </mxCell>
                <mxCell id="rOORRpgIX8pTfMImWT3K-74" value="Bereiken Error" style="text;html=1;strokeColor=none;fillColor=none;align=center;verticalAlign=middle;whiteSpace=wrap;rounded=0;" parent="1" vertex="1">
                    <mxGeometry x="400" y="950" width="60" height="30" as="geometry"/>
                </mxCell>
                <mxCell id="rOORRpgIX8pTfMImWT3K-75" value="False" style="text;html=1;strokeColor=none;fillColor=none;align=center;verticalAlign=middle;whiteSpace=wrap;rounded=0;" parent="1" vertex="1">
                    <mxGeometry x="680" y="890" width="60" height="30" as="geometry"/>
                </mxCell>
                <mxCell id="rOORRpgIX8pTfMImWT3K-77" value="Bereiken manier" style="text;html=1;strokeColor=none;fillColor=none;align=center;verticalAlign=middle;whiteSpace=wrap;rounded=0;" parent="1" vertex="1">
                    <mxGeometry x="670" y="950" width="60" height="30" as="geometry"/>
                </mxCell>
                <mxCell id="rOORRpgIX8pTfMImWT3K-78" value="Vraag leeg?" style="text;html=1;strokeColor=none;fillColor=none;align=center;verticalAlign=middle;whiteSpace=wrap;rounded=0;" parent="1" vertex="1">
                    <mxGeometry x="540" y="1025" width="60" height="30" as="geometry"/>
                </mxCell>
                <mxCell id="rOORRpgIX8pTfMImWT3K-79" value="True" style="text;html=1;strokeColor=none;fillColor=none;align=center;verticalAlign=middle;whiteSpace=wrap;rounded=0;" parent="1" vertex="1">
                    <mxGeometry x="400" y="1040" width="60" height="30" as="geometry"/>
                </mxCell>
                <mxCell id="rOORRpgIX8pTfMImWT3K-80" value="False" style="text;html=1;strokeColor=none;fillColor=none;align=center;verticalAlign=middle;whiteSpace=wrap;rounded=0;" parent="1" vertex="1">
                    <mxGeometry x="680" y="1040" width="60" height="30" as="geometry"/>
                </mxCell>
                <mxCell id="rOORRpgIX8pTfMImWT3K-81" value="Vraag Error" style="text;html=1;strokeColor=none;fillColor=none;align=center;verticalAlign=middle;whiteSpace=wrap;rounded=0;" parent="1" vertex="1">
                    <mxGeometry x="400" y="1120" width="60" height="30" as="geometry"/>
                </mxCell>
                <mxCell id="rOORRpgIX8pTfMImWT3K-82" value="Vraag" style="text;html=1;strokeColor=none;fillColor=none;align=center;verticalAlign=middle;whiteSpace=wrap;rounded=0;" parent="1" vertex="1">
                    <mxGeometry x="650" y="1120" width="60" height="30" as="geometry"/>
                </mxCell>
                <mxCell id="rOORRpgIX8pTfMImWT3K-5" value="Request Type" style="text;html=1;strokeColor=none;fillColor=none;align=center;verticalAlign=middle;whiteSpace=wrap;rounded=0;" parent="1" vertex="1">
                    <mxGeometry x="360" y="100" width="55" height="30" as="geometry"/>
                </mxCell>
                <mxCell id="aR9xugb6Jr2HY5E7-y1P-3" value="Errors leeg?" style="rounded=0;whiteSpace=wrap;html=1;" parent="1" vertex="1">
                    <mxGeometry x="390" y="1160" width="370" height="80" as="geometry"/>
                </mxCell>
                <mxCell id="aR9xugb6Jr2HY5E7-y1P-4" value="" style="endArrow=none;html=1;rounded=0;exitX=0.5;exitY=1;exitDx=0;exitDy=0;entryX=0;entryY=0;entryDx=0;entryDy=0;" parent="1" source="aR9xugb6Jr2HY5E7-y1P-3" target="aR9xugb6Jr2HY5E7-y1P-3" edge="1">
                    <mxGeometry width="50" height="50" relative="1" as="geometry">
                        <mxPoint x="400" y="1220" as="sourcePoint"/>
                        <mxPoint x="450" y="1170" as="targetPoint"/>
                    </mxGeometry>
                </mxCell>
                <mxCell id="aR9xugb6Jr2HY5E7-y1P-6" value="" style="endArrow=none;html=1;rounded=0;" parent="1" target="aR9xugb6Jr2HY5E7-y1P-3" edge="1">
                    <mxGeometry width="50" height="50" relative="1" as="geometry">
                        <mxPoint x="570" y="1240" as="sourcePoint"/>
                        <mxPoint x="450" y="1170" as="targetPoint"/>
                        <Array as="points">
                            <mxPoint x="760" y="1160"/>
                        </Array>
                    </mxGeometry>
                </mxCell>
                <mxCell id="aR9xugb6Jr2HY5E7-y1P-7" value="" style="rounded=0;whiteSpace=wrap;html=1;" parent="1" vertex="1">
                    <mxGeometry x="390" y="1240" width="370" height="80" as="geometry"/>
                </mxCell>
                <mxCell id="aR9xugb6Jr2HY5E7-y1P-8" value="" style="endArrow=none;html=1;rounded=0;entryX=0.5;entryY=1;entryDx=0;entryDy=0;exitX=0.5;exitY=1;exitDx=0;exitDy=0;" parent="1" source="aR9xugb6Jr2HY5E7-y1P-7" target="aR9xugb6Jr2HY5E7-y1P-3" edge="1">
                    <mxGeometry width="50" height="50" relative="1" as="geometry">
                        <mxPoint x="400" y="1220" as="sourcePoint"/>
                        <mxPoint x="450" y="1170" as="targetPoint"/>
                    </mxGeometry>
                </mxCell>
                <mxCell id="aR9xugb6Jr2HY5E7-y1P-9" value="True" style="text;html=1;strokeColor=none;fillColor=none;align=center;verticalAlign=middle;whiteSpace=wrap;rounded=0;" parent="1" vertex="1">
                    <mxGeometry x="390" y="1190" width="60" height="30" as="geometry"/>
                </mxCell>
                <mxCell id="aR9xugb6Jr2HY5E7-y1P-10" value="False" style="text;html=1;strokeColor=none;fillColor=none;align=center;verticalAlign=middle;whiteSpace=wrap;rounded=0;" parent="1" vertex="1">
                    <mxGeometry x="680" y="1200" width="60" height="30" as="geometry"/>
                </mxCell>
                <mxCell id="aR9xugb6Jr2HY5E7-y1P-11" value="Valid is true" style="text;html=1;strokeColor=none;fillColor=none;align=center;verticalAlign=middle;whiteSpace=wrap;rounded=0;" parent="1" vertex="1">
                    <mxGeometry x="410" y="1265" width="60" height="30" as="geometry"/>
                </mxCell>
                <mxCell id="aR9xugb6Jr2HY5E7-y1P-15" value="" style="endArrow=none;html=1;rounded=0;entryX=1;entryY=0;entryDx=0;entryDy=0;exitX=1;exitY=0;exitDx=0;exitDy=0;" parent="1" source="rOORRpgIX8pTfMImWT3K-9" target="rOORRpgIX8pTfMImWT3K-8" edge="1">
                    <mxGeometry width="50" height="50" relative="1" as="geometry">
                        <mxPoint x="400" y="340" as="sourcePoint"/>
                        <mxPoint x="450" y="290" as="targetPoint"/>
                    </mxGeometry>
                </mxCell>
                <mxCell id="aR9xugb6Jr2HY5E7-y1P-16" value="Post" style="text;html=1;strokeColor=none;fillColor=none;align=center;verticalAlign=middle;whiteSpace=wrap;rounded=0;" parent="1" vertex="1">
                    <mxGeometry x="580" y="120" width="60" height="30" as="geometry"/>
                </mxCell>
                <mxCell id="7IWfpjodlrdHWXvk8CLF-2" value="initialise variables" style="text;strokeColor=none;align=center;fillColor=none;html=1;verticalAlign=middle;whiteSpace=wrap;rounded=0;" parent="1" vertex="1">
                    <mxGeometry x="350" y="40" width="60" height="30" as="geometry"/>
                </mxCell>
            </root>
        </mxGraphModel>
    </diagram>
</mxfile>